<svg xmlns="http://www.w3.org/2000/svg" viewBox="0 0 24 24" width="32" height="32">
  <!-- 아기 로고 파비콘 배경 원 -->
  <circle cx="12" cy="12" r="11" fill="#ffe5dd" />
  <!-- 아기 얼굴 라인 및 이목구비 -->
  <path d="M9 11.5h.01" stroke="#ff8e72" stroke-width="2.5" stroke-linecap="round"/>
  <path d="M15 11.5h.01" stroke="#ff8e72" stroke-width="2.5" stroke-linecap="round"/>
  <path d="M10 15c.5.3 1.2.5 2 .5s1.5-.2 2-.5" stroke="#ff8e72" stroke-width="2" stroke-linecap="round"/>
  <path d="M19 6.3a9 9 0 0 1 1.8 3.9 2 2 0 0 1 0 3.6 9 9 0 0 1-1.8 3.9 2 2 0 0 1-3 2.2 9 9 0 0 1-8 0 2 2 0 0 1-3-2.2 9 9 0 0 1-1.8-3.9 2 2 0 0 1 0-3.6 9 9 0 0 1 1.8-3.9 2 2 0 0 1 3-2.2 9 9 0 0 1 8 0 2 2 0 0 1 3 2.2z" fill="none" stroke="#ff8e72" stroke-width="2" stroke-linecap="round" stroke-linejoin="round"/>
</svg>
